<?xml version="1.0" encoding="utf-8"?>

<!DOCTYPE svg PUBLIC "-//W3C//DTD SVG 1.1//EN" "http://www.w3.org/Graphics/SVG/1.1/DTD/svg11.dtd">
<svg version="1.1" id="Layer_1" xmlns="http://www.w3.org/2000/svg" xmlns:xlink="http://www.w3.org/1999/xlink" x="0px" y="0px"
	 viewBox="0 0 1330 1674" enable-background="new 0 0 1330 1674" xml:space="preserve">
<g>
	<path fill="#221F20" d="M935.285,230.664c0,0,68.518,16.401,2.403,72.18c0,0-54.688,22.59-63.688-43.513V127.125
		c0,0-27.064,190.066-122.103,150.806c0,0-68.473-62.593,19.521-80.573c0,0-91.561-72.194-98.529-161.858
		c-0.386,0.108-1.091,0.167-1.488,0.253c-0.406-0.086-0.966-0.146-1.352-0.253c-6.968,89.664-98.029,161.858-98.029,161.858
		c87.986,17.979,19.742,80.573,19.742,80.573C496.728,317.191,471,127.125,471,127.125v132.206
		c0,66.103-65.071,43.513-65.071,43.513c-66.107-55.779,0.572-72.18,0.572-72.18c-28.924-33.054-193.718-52.519-193.718-52.519
		c103.299,41.31,177.904,254.513,177.904,254.513l274.174,89.022l285.16-90.879c0,0,75.897-211.809,179.206-253.118
		C1129.227,177.683,964.191,197.61,935.285,230.664z"/>
	<path fill="none" d="M663.83,1316.527c-0.518,0.051,0,0.111,0,0.146C663.83,1316.638,664.352,1316.578,663.83,1316.527z"/>
	<polygon fill="none" points="799.783,1112.94 799.784,1112.94 799.783,1112.94 	"/>
	<polygon fill="none" points="879.364,1095.444 874.279,1061.265 879.364,1095.444 	"/>
	<polygon fill="#221F20" points="879.364,1095.444 879.364,1095.444 799.783,1112.94 799.784,1112.94 	"/>
	<path fill="#221F20" d="M1244.611,709.405l-200.394-121.493l198.964,48.911L944.633,445.904l-279.996,92.643l-279.82-92.643
		L119.732,627.355l165.68-39.444L85.027,709.405c0,0-56.799,224.061,66.265,399.204l75.741-108.872l-3.158,205.118l159.853,157.783
		l43.101-63.103v107.28L664.102,1638.5h0.714l253.013-231.684v-107.28l35.584,63.103l155.417-157.783l-4.688-205.118l74.977,108.872
		C1302.174,933.466,1244.611,709.405,1244.611,709.405z M757.038,1266.207c-4.644,8.969-9.914,15.983-18.218,22.029
		c0,0-12.873-33.639-12.873-33.639s-18.118,56.511-62.118,61.784c-62-5.273-63.01-61.784-63.01-61.784s-13.898,33.639-13.898,33.639
		c-20.751-15.088-28.769-44.34-21.069-68.649l97.977-52.437c0,0,97.13,52.434,97.136,52.437c0.576,0.311,0.874,3.572,0.987,4.135
		c0.745,3.718,1.187,7.502,1.364,11.289c0.483,10.362-0.759,21.643-6.051,30.756C757.189,1265.914,757.114,1266.06,757.038,1266.207
		z M964.097,880.336c-9.176,21.674-35.395,66.818-102.246,97.325l12.428,83.604l5.084,34.179v0l-79.58,17.496l0,0l82.756,12.737
		c0,0-0.377,7.747-2.885,16.316c-2.705,9.227-7.892,19.413-17.804,21.887l-74.804-15.921v0l42.961,31.834
		c0,0-7.927,17.111-35.198,13.619v-0.001c-15.108-1.909-36.123-10.144-65.063-31.124l-11.251-6.832c0,0.001,0,0.001,0,0.002
		l-33.311-20.227c0,0,6.365-55.716,68.436-76.396l18.626-10.409c-0.344,0.391-0.677,0.789-1.017,1.182
		c0.001-0.001,0.003-0.001,0.005-0.002c0.338-0.392,0.67-0.788,1.012-1.177l35.489-19.837c0,0-17.582-25.45-66.92,0.007
		l-76.482,33.45l-76.045-33.387c-49.334-25.457-66.484,0.078-66.484,0.078l8.273,4.76l45.838,25.52
		c62.08,20.681,68.444,76.289,68.444,76.289l-34.745,21.16l-0.002-0.018l-9.824,5.789c-28.928,20.991-49.938,29.16-65.045,31.09
		l-0.014,0.082c-27.271,3.492-35.21-13.619-35.21-13.619l42.941-31.81l0.033-0.194l-74.809,15.735
		c-3.847-0.968-6.967-3.455-9.527-6.228l0.144-0.09c-0.587-0.523-1.088-1.145-1.47-1.831c-8.901-11.311-9.835-30.401-9.835-30.401
		l76.541-12.473l6.219-0.263l-79.58-16.793l2.854-19.191l14.655-98.592c-74.341-33.922-98.441-85.975-104.724-103.672
		c-1.383-3.903-1.913-6.155-1.913-6.155l76.396-62.071l0.064,0.034l33.358,17.475c11.136,70.023,76.405,63.667,76.405,63.667
		l1.819,18.691l4.541,46.565l20.689,25.474l3.167-77.962C636.376,859.916,622.03,813,622.03,813
		c-7.961,38.99-46.202,54.983-46.202,54.983l-12.827-47.596l-6.445-3.172l-119.469-58.609c-5.135-28.042,3.548-65.859,3.548-65.859
		c6-13.101,20.261-27.34,36.396-40.385c30.884-24.956,68.641-45.559,68.641-45.559l118.66,63.269l119.093-63.269
		c0,0,35.986,19.589,66.467,43.711c17.119,13.541,32.501,28.504,38.802,42.234c0,0,8.885,37.818,3.758,65.859l-83.399,40.912
		l-42.524,20.869l-12.823,47.596c0,0-38.233-15.994-46.197-54.983c0,0-14.343,46.916,44.545,86.707l3.167,77.962l20.689-25.474
		l4.494-46.129l1.866-19.128c0,0,65.268,6.356,76.404-63.667l33.417-17.509l0.129,0.107l76.276,61.964
		C968.497,867.834,967.376,872.602,964.097,880.336z"/>
	<path fill="#221F20" d="M663.83,1316.672c0-0.034-0.518-0.095,0-0.146C664.352,1316.578,663.83,1316.638,663.83,1316.672z"/>
</g>
</svg>
